<svg xmlns="http://www.w3.org/2000/svg" width="18" height="16" viewBox="0 0 18 16">
    <g fill="#FFF" fill-rule="nonzero" stroke="#FFF">
        <path stroke-width=".5" d="M9.142 1.523a.96.96 0 0 1-.008.1 6.274 6.274 0 0 1-.02.153 1.598 1.598 0 0 1-.093.35.478.478 0 0 1-.072.13c-.027.031-.057.047-.089.047a.413.413 0 0 1-.14-.032 2.687 2.687 0 0 0-.463-.137 1.643 1.643 0 0 0-.338-.032c-.23 0-.428.035-.591.105-.164.07-.305.178-.423.326a1.925 1.925 0 0 0-.297.559c-.08.225-.15.49-.21.796l-.136.724h1.617c.059 0 .106.02.14.06.035.04.053.107.053.198 0 .059-.006.12-.016.185-.011.064-.024.127-.04.189-.017.062-.037.12-.06.177a.86.86 0 0 1-.081.149.417.417 0 0 1-.1.104.193.193 0 0 1-.113.04H6.036L4.661 12.57a5.14 5.14 0 0 1-.37 1.17 2.76 2.76 0 0 1-.572.821 2.144 2.144 0 0 1-.78.483 2.973 2.973 0 0 1-.998.157 2.55 2.55 0 0 1-.591-.056c-.153-.038-.248-.073-.286-.105a.285.285 0 0 1-.048-.088.419.419 0 0 1-.016-.13c0-.02.004-.057.012-.108a2.716 2.716 0 0 1 .068-.338c.017-.061.035-.119.057-.173a.478.478 0 0 1 .072-.128.122.122 0 0 1 .097-.049c.037 0 .073.004.108.012a3.931 3.931 0 0 0 .258.049c.056.008.127.012.213.012.225 0 .42-.035.583-.105.164-.07.303-.178.419-.326.115-.147.211-.334.29-.559.077-.225.148-.496.212-.812l1.32-6.581h-1.03a.154.154 0 0 1-.125-.053c-.03-.035-.044-.1-.044-.197a1.857 1.857 0 0 1 .036-.346c.014-.064.031-.126.053-.185a.752.752 0 0 1 .08-.16.554.554 0 0 1 .1-.117.198.198 0 0 1 .133-.045h1.014l.201-1.005c.086-.44.21-.825.37-1.155.161-.33.356-.602.584-.816.228-.215.49-.375.788-.48.298-.104.626-.156.986-.156a3.576 3.576 0 0 1 .728.076c.11.025.206.053.29.085.082.032.14.064.172.096a.242.242 0 0 1 .073.113.48.48 0 0 1 .024.153z"/>
        <path stroke-width=".75" d="M10.754 6.7c-.355.537-.656 1.07-.903 1.6a11.89 11.89 0 0 0-.603 1.55c-.155.504-.268.993-.34 1.467a9.014 9.014 0 0 0-.107 1.345c0 .173.005.354.017.545.011.19.028.382.049.576.02.193.049.385.083.576.034.19.074.369.12.535a.34.34 0 0 1 .012.1.09.09 0 0 1-.037.068.24.24 0 0 1-.107.04 1.837 1.837 0 0 1-.34.007.41.41 0 0 1-.102-.02.191.191 0 0 1-.064-.034.117.117 0 0 1-.032-.044 8.832 8.832 0 0 1-.29-1.194A7.98 7.98 0 0 1 8 12.452a8.763 8.763 0 0 1 .435-2.715c.156-.485.363-.987.62-1.506.257-.52.576-1.052.957-1.6a.196.196 0 0 1 .051-.058.282.282 0 0 1 .083-.041.591.591 0 0 1 .13-.025c.051-.005.115-.007.19-.007s.135.005.18.015c.046.01.081.022.105.039.025.016.037.037.037.063a.138.138 0 0 1-.034.083zm2.427 4.365l.957 2.149c.02.045.027.084.022.115-.005.03-.026.056-.061.075a.43.43 0 0 1-.15.042 2.012 2.012 0 0 1-.246.012c-.091 0-.163-.002-.215-.007a.47.47 0 0 1-.122-.025c-.03-.011-.049-.026-.058-.044a.722.722 0 0 1-.03-.06l-.732-1.734-1.382 1.733a.54.54 0 0 1-.061.061.222.222 0 0 1-.09.042c-.04.01-.089.018-.15.024a2.296 2.296 0 0 1-.466-.002.301.301 0 0 1-.129-.042c-.028-.02-.039-.044-.034-.073a.296.296 0 0 1 .056-.112l1.826-2.168L11.213 9a.239.239 0 0 1-.025-.115c.004-.03.02-.056.052-.075a.331.331 0 0 1 .139-.04c.062-.006.143-.01.244-.01.091 0 .163.003.215.008a.526.526 0 0 1 .12.022c.027.01.047.023.058.04a.326.326 0 0 1 .032.058l.698 1.64 1.318-1.64c.02-.02.04-.038.059-.054a.246.246 0 0 1 .083-.042.643.643 0 0 1 .134-.024 2.45 2.45 0 0 1 .213-.007c.097 0 .177.003.239.01a.375.375 0 0 1 .137.034c.029.016.041.04.036.07-.005.031-.028.07-.07.115l-1.714 2.075zm1.46 3.848c.354-.534.656-1.065.903-1.594a11.77 11.77 0 0 0 .603-1.555c.155-.508.268-.998.34-1.47.07-.472.107-.92.107-1.343 0-.172-.006-.354-.017-.544-.012-.19-.028-.383-.05-.576a8.248 8.248 0 0 0-.082-.574 6.568 6.568 0 0 0-.12-.537.253.253 0 0 1-.01-.095.112.112 0 0 1 .037-.071.204.204 0 0 1 .105-.042 1.24 1.24 0 0 1 .195-.012c.059 0 .109.002.15.007a.64.64 0 0 1 .102.02.142.142 0 0 1 .06.032c.014.013.024.029.03.048.12.372.218.768.293 1.19.075.42.112.877.112 1.369a8.622 8.622 0 0 1-.437 2.71c-.157.485-.364.987-.62 1.506a12.64 12.64 0 0 1-.954 1.604.282.282 0 0 1-.14.095.591.591 0 0 1-.129.025 2.088 2.088 0 0 1-.19.007.895.895 0 0 1-.181-.014.28.28 0 0 1-.102-.04c-.023-.016-.035-.036-.035-.06 0-.025.01-.053.03-.086z"/>
    </g>
</svg>
