<svg xmlns="http://www.w3.org/2000/svg" width="18" height="18" viewBox="0 0 18 18">
    <path fill="#FFF" fill-rule="evenodd" d="M7.127 12.868c-1.503-.752-2.542-2.365-2.542-4.234 0-2.588 1.992-4.686 4.449-4.686s4.448 2.098 4.448 4.686c0 1.869-1.039 3.482-2.542 4.234v1.12H7.127v-1.12zm0 2.124h3.813V17H7.127v-2.008zM9.54 2.944h-1V1h1v1.944zM1.5 8.81V7.806h2.216V8.81H1.5zM3.452 3.3l.699-.71 1.567 1.59-.7.71L3.453 3.3zm10.967 5.615V7.911H16.5v1.004h-2.081zm-1.082-4.121l-.699-.71L14.11 2.59l.7.71-1.473 1.494z"/>
</svg>
