<svg xmlns="http://www.w3.org/2000/svg" width="20" height="20" viewBox="0 0 20 20">
    <path fill="#FFF" fill-rule="nonzero" d="M7.5 0c-.92 0-1.667.746-1.667 1.667 0 .014.005.028.005.042-.14-.016-.277-.042-.421-.042a3.75 3.75 0 0 0-3.75 3.75c0 .392.076.763.188 1.118A4.16 4.16 0 0 0 0 10a4.16 4.16 0 0 0 1.855 3.465 3.68 3.68 0 0 0-.188 1.118c0 1.942 1.481 3.519 3.372 3.711a2.081 2.081 0 0 0 4.128-.377V17.5c0-.92-.748-1.667-1.667-1.667a.833.833 0 1 1 0-1.666 3.3 3.3 0 0 1 1.667.464V7.476a4.092 4.092 0 0 1-2.5.857.833.833 0 1 1 0-1.666c1.378 0 2.5-1.122 2.5-2.5v-2.5C9.167.746 8.42 0 7.5 0zm5 0c-.92 0-1.667.746-1.667 1.667v2.5c0 1.378 1.122 2.5 2.5 2.5a.833.833 0 1 1 0 1.666 4.096 4.096 0 0 1-2.5-.856v10.44a2.081 2.081 0 1 0 4.128.378 3.732 3.732 0 0 0 3.36-3.583 4.943 4.943 0 0 1-1.654.288.833.833 0 1 1 0-1.667A3.337 3.337 0 0 0 20 10a4.16 4.16 0 0 0-1.855-3.465 3.68 3.68 0 0 0 .188-1.118 3.75 3.75 0 0 0-3.75-3.75c-.144 0-.281.026-.421.042 0-.014.005-.028.005-.042C14.167.746 13.42 0 12.5 0z"/>
</svg>
