<svg xmlns="http://www.w3.org/2000/svg" width="20" height="12" viewBox="0 0 20 12">
    <path fill="#FFF" fill-rule="nonzero" d="M5.77 0C2.609 0 0 2.712 0 6c-.002.11.007.219.025.325C.193 9.456 2.723 12 5.77 12c1.385 0 2.38-.41 3.149-1.05-.691-.881-1.16-1.916-1.466-2.875-.385.481-.914.725-1.683.725-1.427 0-2.638-1.225-2.692-2.7V6c0-1.512 1.238-2.8 2.692-2.8 1.043 0 1.343.237 1.73.75.388.512.707 1.453 1.058 2.55.352 1.097.718 2.363 1.563 3.5.844 1.137 2.32 2 4.11 2 3.162 0 5.77-2.712 5.77-6v-.15a1.748 1.748 0 0 0-.024-.175C19.808 2.544 17.278 0 14.23 0c-1.385 0-2.38.41-3.149 1.05.692.96 1.16 1.994 1.467 2.875.462-.481.913-.725 1.682-.725 1.428 0 2.639 1.225 2.693 2.7V6c0 1.512-1.238 2.8-2.693 2.8-1.018 0-1.3-.238-1.682-.75-.382-.512-.706-1.447-1.058-2.55-.352-1.103-.73-2.363-1.587-3.5C9.048.863 7.573 0 5.77 0z"/>
</svg>
