<svg xmlns="http://www.w3.org/2000/svg" width="20" height="20" viewBox="0 0 20 20">
    <path fill="#FFF" fill-rule="nonzero" d="M1.818 0A1.818 1.818 0 0 0 0 1.818v5.455C0 8.277.814 9.09 1.818 9.09h5.455A1.818 1.818 0 0 0 9.09 7.273V1.818A1.818 1.818 0 0 0 7.273 0H1.818zm10.91 0a1.818 1.818 0 0 0-1.819 1.818v5.455c0 1.004.814 1.818 1.818 1.818h5.455A1.818 1.818 0 0 0 20 7.273V1.818A1.818 1.818 0 0 0 18.182 0h-5.455zM4.544 1.818c.503 0 .91.407.91.91v.908h.909a.909.909 0 1 1 0 1.819h-.91v.909a.909.909 0 1 1-1.818 0v-.91h-.909a.909.909 0 1 1 0-1.818h.91v-.909c0-.502.406-.909.908-.909zm9.091 1.818h3.637a.909.909 0 1 1 0 1.819h-3.637a.909.909 0 1 1 0-1.819zM1.818 10.91A1.818 1.818 0 0 0 0 12.727v5.455C0 19.186.814 20 1.818 20h5.455a1.818 1.818 0 0 0 1.818-1.818v-5.455a1.818 1.818 0 0 0-1.818-1.818H1.818zm10.91 0a1.818 1.818 0 0 0-1.819 1.818v5.455c0 1.004.814 1.818 1.818 1.818h5.455A1.818 1.818 0 0 0 20 18.182v-5.455a1.818 1.818 0 0 0-1.818-1.818h-5.455zm.908 1.818h3.637a.909.909 0 1 1 0 1.818h-3.637a.909.909 0 1 1 0-1.818zm-10.454.455c.232 0 .465.088.643.266l.72.721.721-.72a.908.908 0 1 1 1.286 1.285l-.721.72.72.721a.908.908 0 1 1-1.285 1.286l-.72-.72-.721.72a.907.907 0 0 1-1.286 0 .908.908 0 0 1 0-1.286l.72-.72-.72-.721a.908.908 0 0 1 .643-1.552zm10.454 3.182h3.637a.909.909 0 1 1 0 1.818h-3.637a.909.909 0 1 1 0-1.818z"/>
</svg>
