<svg xmlns="http://www.w3.org/2000/svg" width="20" height="18" viewBox="0 0 20 18">
    <g fill="#FFF" fill-rule="nonzero">
        <path d="M4.727 2.916h-2.97a.582.582 0 0 1-.585-.58c0-.32.262-.578.586-.578h2.969c.323 0 .585.259.585.579 0 .32-.262.58-.585.58zM4.727 7.552h-2.97a.582.582 0 0 1-.585-.58c0-.32.262-.58.586-.58h2.969c.323 0 .585.26.585.58 0 .32-.262.58-.585.58zM3.555 5.234H.585A.582.582 0 0 1 0 4.654c0-.32.262-.579.586-.579h2.969c.324 0 .586.26.586.58 0 .32-.262.579-.586.579zM10.943 1.083a1.182 1.182 0 0 0-1.479.145L6.242 4.415a1.15 1.15 0 0 0 0 1.638 1.18 1.18 0 0 0 1.657 0l2.543-2.515 1.82 1.297 2.49-1.145-3.809-2.607zM8.586 8.47L.968 16.003a1.15 1.15 0 0 0 0 1.638 1.18 1.18 0 0 0 1.657 0l6.79-6.713-.83-2.458z"/>
        <path d="M18.828 6.972h-3.555V4.655c0-.456-.278-.887-.724-1.07a1.185 1.185 0 0 0-1.276.25L8.586 8.47a1.15 1.15 0 0 0 0 1.639l2.687 2.657L8 16.003a1.15 1.15 0 0 0 0 1.638 1.18 1.18 0 0 0 1.657 0l4.101-4.056a1.15 1.15 0 0 0 0-1.638L11.071 9.29l1.859-1.838v.679c0 .64.524 1.159 1.172 1.159h4.726c.647 0 1.172-.52 1.172-1.16 0-.639-.525-1.158-1.172-1.158z"/>
        <ellipse cx="17.031" cy="1.758" rx="1.758" ry="1.738"/>
    </g>
</svg>
