<svg xmlns="http://www.w3.org/2000/svg" width="20" height="18" viewBox="0 0 20 18">
    <g fill="#FFF" fill-rule="nonzero">
        <path d="M2 0h1a2 2 0 0 1 2 2v14a2 2 0 0 1-2 2H2a2 2 0 0 1-2-2V2a2 2 0 0 1 2-2zM5 7c1.1 0 2 .9 2 2s-.9 2-2 2V7z"/>
        <path d="M12.994 0C12.462-.004 12 .456 12 1.036c0 .457.29.868.719.98 2.852.752 4.998 3.28 5.256 6.36.017.205.025.414.025.624 0 3.358-2.24 6.182-5.281 6.983-.428.112-.719.524-.719.98 0 .663.605 1.17 1.227 1.006C17.12 16.947 20 13.313 20 9c0-4.313-2.88-7.946-6.773-8.969a.943.943 0 0 0-.233-.03z" opacity=".4"/>
        <path d="M12.96 4.387c-.503.02-.96.456-.96 1.037v.025c0 .364.185.702.494.878C13.414 6.85 14 7.85 14 9c0 1.15-.586 2.148-1.506 2.67a1.007 1.007 0 0 0-.494.88v.023c0 .776.815 1.296 1.467.91A5.188 5.188 0 0 0 16 9a5.189 5.189 0 0 0-2.533-4.484.92.92 0 0 0-.506-.13z"/>
    </g>
</svg>
