<svg xmlns="http://www.w3.org/2000/svg" width="18" height="18" viewBox="0 0 18 18">
    <g fill="none" fill-rule="nonzero">
        <path fill="#FFF" d="M18 3.5c0 .277-.223.5-.5.5H.5a.5.5 0 0 1-.5-.5v-3A.5.5 0 0 1 .5 0h17c.277 0 .5.223.5.5v3z" opacity=".4"/>
        <path fill="#FFF" d="M0 2.5h18V18H0z"/>
        <path fill="#282828" d="M2.623 10.257c0-.944.116-1.795.347-2.554.23-.758.571-1.406 1.02-1.943h1.592c-.41.57-.726 1.24-.947 2.012a8.939 8.939 0 0 0-.332 2.475c0 .85.107 1.656.322 2.42.215.763.53 1.434.947 2.014H3.99c-.446-.514-.785-1.146-1.018-1.895-.233-.748-.349-1.591-.349-2.529zm5.059.02l-1.69-2.71H8.16L9 9.119l.86-1.552h2.172l-1.733 2.71 1.802 2.822H9.933L9 11.419l-.928 1.68H5.9l1.783-2.822zm7.7-.02c0 .921-.117 1.759-.35 2.512-.232.754-.573 1.391-1.022 1.912h-1.582c.41-.56.724-1.225.942-1.995.218-.77.327-1.583.327-2.439 0-.862-.107-1.679-.322-2.448a6.417 6.417 0 0 0-.957-2.039h1.592c.452.54.794 1.195 1.025 1.963.231.768.347 1.613.347 2.534z"/>
    </g>
</svg>
